<svg class="bootsSignature" xmlns="http://www.w3.org/2000/svg" width="196" height="80" viewBox="0 0 196 80">
	<title>Boots signature</title>
	<rect width="196" height="80" fill="none" />
	<g class="border">
		<path
			d="m170.3077,21.7456v-.0884c-.0195-1.5459-.4033-3.1011-1.1543-4.7158-.666-1.458-1.8096-2.6221-3.2021-3.2686-2.7129-1.271-5.2686-1.2256-7.6055.1367-1.0674.6235-2.2148,1.2295-3.5088,1.8535-.0623.03-.1273.0585-.1898.0884-.8414-2.3975-3.0329-4.1638-5.7184-4.3418l-.1562-.0132c-.5566-.0513-1.5918-.1436-2.7959.1084l-.3447.0718c-1.8906.395-3.8457.8037-5.8711,1.4424-1.5225.48-3.083.8979-4.7363,1.3408-.6758.1807-1.3516.3618-2.0254.5474-4.3916,1.2075-8.7822,2.4141-13.1768,3.6143l-.2314.0635c-.4717.1294-.917.252-1.2061.2959-.7471.1128-1.876.2837-3.1514.8457-.934.4144-1.7248,1.0127-2.3575,1.7391-1.5716-.4412-3.2221-.6998-4.9413-.7718-2.1055-.0874-4.1377.1226-5.8467.3389-2.6943.3418-5.332,1.2148-8.0645,2.6699-1.1963.6372-2.2529,1.4307-3.1489,2.3584-.1567-.0405-.3149-.0796-.4751-.1162-1.7197-.396-3.3794-.4966-4.478-.5381-1.1152-.0425-2.1841.0015-3.125.0391-.0303.0015-.0601.0024-.0903.0039-2.8418-1.0737-6.1523-.4131-8.2983,1.8315-.0127.0107-.1367.1123-.5771.3164-.8184.3799-1.7256.8237-2.6606,1.3809-.4058-.1548-.8232-.3003-1.2539-.436-1.1763-.3711-2.3379-.6118-3.4805-.7642.1089-.2051.1973-.3911.2695-.5488.0718-.1079.146-.2139.2192-.3203.2363-.3438.4702-.6885.6875-1.0425,1.1826-1.9287,1.7832-3.874,2.2148-5.5229.5127-1.96.5747-3.9409.1846-5.8882-.1685-.8398-.4302-1.5356-.603-1.9961-.0386-.103-.0801-.2046-.1118-.3057-.5244-1.7388-1.4458-3.3013-2.7334-4.6382-.002-.002-.0527-.0552-.1528-.1997-1.1733-1.686-2.7271-3.0664-4.6201-4.103C57.3248.7686,52.7902.4473,49.3385.4409l-.3203-.0005-1.8535.1982c-1.1069.1196-2.2134.2393-3.3242.3428-2.1865.2046-4.4453.6104-7.3232,1.3145-4.083.999-7.3706,1.9976-10.3462,3.1431-2.6802,1.0317-5.354,2.0801-8.0273,3.1284l-3.1338,1.2275c-.3027.1172-.5972.2588-.8516.3989l-3.7222,1.9727c-2.3994,1.2725-4.9219,2.7817-7.1123,5.187-2.7373,3.0073-2.4761,6.1094-2.0757,7.6938.2549,1.0063.5728,1.9194.8535,2.7246l.1172.3364c.4844,1.3965,1.3159,2.6401,2.5454,3.8052,2.2407,2.1187,5.5156,2.7305,8.3477,1.5596,1.8809-.7788,3.2593-2.2153,3.8809-4.0454.3374-.9932.4272-2.0312.2764-3.0552.0615-.043.1216-.0835.1802-.1211.7842-.5059,1.6514-.9912,2.6504-1.4834,1.9839-.9771,3.605-1.7295,5.1016-2.3687.8481-.3623,1.7671-.6963,2.7397-1.0503.5454-.1982,1.0908-.397,1.6309-.6021,2.3486-.8906,4.8291-1.6968,7.5474-2.4507-.3433.7178-.5693,1.501-.6602,2.3262-.1274,1.1553-.248,2.312-.3687,3.4683-.1001.9585-.2002,1.9175-.3042,2.873-.0234.2144-.0566.4272-.0889.6406-.0796.5317-.1787,1.1934-.2178,1.9404-.0537,1.0386-.0942,2.0781-.1294,3.1177-.4912.2749-.9829.5483-1.4736.8213-2.3701,1.3169-3.7627,3.6509-3.7256,6.2412.0127.8989.0732,2.0952.4312,3.3784.4819,1.7275,1.6348,3.3047,3.1636,4.3281.4932.3311,1.0098.6045,1.5444.8203.0977,1.8311.1978,3.6611.2979,5.4932.0156.2842.0361.5684.0576.8525-.4487.5381-.7617,1.0762-.9751,1.5215-.9453,1.9775-1.2036,4.127-.7676,6.3867.3574,1.8574,1.2275,3.4775,2.5215,4.75l.0015.2705c.0059,1.6396.4883,3.1963,1.4038,4.5225l.0381.0664c.1206.2129.2441.4248.3613.6084,1.2173,1.9648,2.8477,2.6982,4.0312,2.9756.7705.1758,1.5444.2959,2.3223.3584.1528.0117.3047.0176.457.0176,2.5957,0,5.0723-1.6797,6.0249-4.1865.2188-.5713.5757-1.5049.6929-2.6953,1.1992-.2842,2.417-.6455,3.6772-1.0879,2.187-.7686,4.3877-1.6514,6.541-2.624,2.1353-.9648,4.1318-2.0156,6.1621-3.0977.7046-.376,1.3501-.7812,1.9595-1.1895.7944.5225,1.6227.9323,2.4749,1.2462-.7971.221-1.686.5743-2.5877,1.1718-3.0874,2.04-3.3188,4.9961-3.2754,6.168l.0371.873c.0146.3145.0293.6289.0391.9434.0752,2.4219,1.2466,4.582,3.2188,5.9307.0376.0264.0757.0518.0801.0527,1.4468,1.2988,3.251,1.9795,5.188,1.9795.4829,0,.9741-.043,1.4702-.1279,1.1475-.1973,2.2954-.4014,3.4321-.6387.4819-.1006.959-.2256,1.4351-.3535.2661-.0713.5312-.1465.8086-.2021.8232-.165,1.6499-.3174,2.4761-.4697.8516-.1572,1.7026-.3145,2.5527-.4844.4839-.0967.9624-.2207,1.4399-.3496.23-.0625.4575-.1318.6919-.1729,1.4575-.2588,2.9873-.4854,4.3071-.6768.5264-.0762,1.0547-.1406,1.583-.2061.5884-.0723,1.1768-.1445,1.7627-.2285l.0039-.001c.2729-.0371.8384-.0908,1.4819-.1543,1.4751-.1465,2.5962-.2617,3.395-.3848.6445-.0898,1.1602-.2627,1.541-.415.1631-.0557.3252-.1123.4883-.1689.2803-.0977.5986-.208.7354-.2402.3125-.0713.6318-.1104.9502-.1562.3604-.0527.7207-.1055,1.0811-.1689.6064-.1074,1.2119-.2207,1.8174-.334.9375-.1758,1.874-.3525,2.8193-.502,1.3984-.2207,2.7988-.4219,4.1992-.623.8945-.1279,1.7891-.2568,2.6904-.3916.3896-.0586.7773-.1328,1.1641-.209.2236-.0439.4473-.0918.6689-.1221,2.1084-.2871,4.2178-.5586,6.3252-.8281.2559-.0332.5127-.0586.7705-.084.5273-.0527,1.0547-.1084,1.5762-.1875.8311-.126,1.6602-.2607,2.4902-.3945.9385-.1523,1.8779-.3047,2.8223-.4434.3682-.0547.7402-.0879,1.1104-.124.6055-.0586,1.21-.1201,1.8105-.2119,1.1768-.1807,2.3496-.377,3.5234-.5732.8281-.1387,1.6553-.2773,2.4863-.4102.8945-.1436,1.79-.2803,2.6865-.418,1.0225-.1562,2.0459-.3135,3.0693-.4785.6602-.1074,1.3193-.2256,1.9785-.3447.666-.1191,1.3311-.2402,1.9971-.3447l.3047-.0479c.2861-.0459.6777-.1094.7559-.1143,2.1885.1025,4.3652-.6484,5.9521-2.0947,1.5166-1.3818,2.3975-3.2646,2.4805-5.3018.1572-3.8701-1.4375-6.3994-2.7725-7.8076-.6974-.7475-1.5711-1.3188-2.5516-1.6987.7603-.3411,1.5282-.699,2.3016-1.0923l.6904-.3477c1.2949-.6514,2.7637-1.3896,4.2041-2.3486,1.0293-.6855,1.9482-1.5557,2.8867-2.7305.9385-1.1719,1.5947-2.6216,1.8467-4.0835.1943-1.1318.2119-2.354.0537-3.6226-.333-2.6885-1.6729-4.9565-3.7451-6.4126,2.958-1.2656,4.9795-4.2583,4.9863-7.4873Zm-82.5596,38.3921l.1748-.085c1.1274-.5459,2.1255-1.0957,3.0537-1.6826.9023-.5713,1.8203-1.2002,2.8579-1.959.4277.123.9038.2266,1.4199.2832,1.1118.1211,2.248.1475,3.3828.0811,2.1284-.1309,4.1401-.5752,5.9771-1.3203.4873-.1973,1.1006-.4307,1.5264-.4824,1.5264-.1875,2.9863-.8779,4.1357-1.9512l.3037-.1582c1.3379-.6924,2.8545-1.4766,4.3545-2.5957l.541-.4014c1.1768-.873,2.5098-1.8623,3.7783-3.0723.5588-.5338,1.0718-1.1064,1.5626-1.6962.2507,1.3066.5412,2.6489.8994,4.0624.3301,1.3074.9159,3.5533,2.6498,5.5724-.4509.0659-.9016.1376-1.3529.199-.9854.1338-1.9736.248-2.9609.3633-.916.1074-1.832.2139-2.7441.334-1.1826.1543-2.3623.3252-3.543.4971l-3.3926.4795c-.7305.1006-1.4609.2002-2.1914.3066-1.1445.167-2.2871.3389-3.4297.5117l-2.9971.4482c-1.2842.1895-2.5674.3799-3.8457.5869-.9966.1611-1.9912.3379-2.9854.5156-.6606.1182-1.3208.2363-1.9795.3486-.5356.0908-1.0718.1748-1.6084.2588-.625.0977-1.2505.1963-1.876.3037-.6001.1025-1.1987.2139-1.7974.3242-.0336.0062-.0674.0118-.1011.018.0619-.0299.126-.0605.1875-.0903Zm-26.1089-12.4346c-.0913.0645-.3726.2207-.5781.335l-.375.209c-.7139.3984-1.4272.7988-2.1558,1.1641-.2061.1035-.4229.1855-.6372.2725-.376.1533-.7515.3086-1.1143.4775-.4707.2188-.9351.4512-1.3994.6836-.2598.1299-.519.2598-.793.3926l-.0669.0234c-.1401.0498-.2793.0996-.4102.1494l-.8613.3252c-.7773.293-1.5547.5869-2.3262.8887-.0161.0068-.0317.0127-.0474.0186-.0317-.4502-.062-.9014-.0898-1.3516-.022-.3525-.022-.707-.0249-1.0605l-.0322-2.0869c-.0176-1.0566-.0352-2.1133-.0615-3.1689,0-.0088-.0005-.0176-.0005-.0273.1851-.0674.3691-.1328.5474-.1924.0435-.0146.0879-.0254.1348-.0352l.7246-.1631c.564-.1289,1.1274-.2588,1.6948-.3594l.937-.168c1.3428-.2422,2.6108-.4697,3.832-.6104.7656-.0879,1.6367-.1162,2.5591-.1455.4844-.0156.9683-.0322,1.4521-.0557l.1958-.0127c.5449-.043,1.0859-.042,1.6177.0078.0742.6064.1885,1.207.3433,1.8018-1.1582,1.1475-2.1255,1.9941-3.0649,2.6885Zm-7.9219-31.4326c.3867.0771.7368.1812,1.0625.3198-.293.7759-.6768,1.4434-1.1597,2.02-.3062.3667-.665.8149-1.0088,1.3618-.1177.1865-.4976.564-.8472.9043-.3345-.9224-.8174-1.6646-1.3027-2.2388-.5264-.9536-1.2236-1.8062-2.0635-2.5215.252-.0186.5093-.0352.7729-.0503,1.8853-.1099,3.2871-.0464,4.5464.2046Z" />
	</g>
	<g class="signature">
		<path
			d="m49.3273,6.4407c3.348.0066,6.5947.3999,9.5821,2.0356,1.0217.5594,1.9013,1.297,2.5749,2.2661.2272.3269.4767.6438.7523.9302.6134.6376,1.059,1.3634,1.3153,2.2137.1771.5876.4563,1.1509.576,1.748.213,1.0621.172,2.1287-.106,3.1909-.3569,1.3638-.7838,2.6958-1.5248,3.9042-.3149.5136-.6822.9948-1.0003,1.5066-.2033.3271-.3059.7284-.5474,1.0182-.9195,1.1031-1.8506,2.1992-2.829,3.2497-.7765.8338-1.6102,1.6171-2.4519,2.386-.7153.6534-1.4719,1.2623-2.2227,1.8755-.4853.3963-1.0028.7532-1.4854,1.1526-.1498.124-.2326.3292-.346.4973.1924.0368.3913.1256.576.1022,1.3459-.1705,2.6863-.3863,4.0337-.5433,1.4495-.1689,2.9024-.3739,4.3577-.4119,2.531-.066,5.0708-.0732,7.5292.702,1.1136.3512,2.1791.8102,3.1691,1.4372.4654.2948.6279.257,1.0064-.1278.2228-.2265.4753-.4266.7289-.6193,1.0304-.783,2.171-1.3716,3.3412-1.9143.8701-.4035,1.6892-.8833,2.369-1.5941.5733-.5994,1.5965-.6454,2.2609-.1686.3046.2186.6371.212.9815.2025,1.2424-.0345,2.4872-.1246,3.7267-.0778,1.1249.0425,2.2666.1382,3.3598.3896,1.1954.2749,2.3472.7475,3.3145,1.5606.1485.1248.3022.2445.4613.3555.3414.2382.4927.1805.626-.2064.1518-.4404.3103-.8788.4802-1.3124.5618-1.434,1.5565-2.4714,2.9071-3.1905,1.8892-1.0059,3.8792-1.7449,5.9994-2.0138,1.6027-.2032,3.2339-.3634,4.8422-.2963,2.3538.0983,4.6417.6806,6.6998,1.8655,2.1828,1.2568,3.57,3.137,4.0215,5.6741.1733.9738.183,1.9416.0349,2.8977-.0925.5975-.3276,1.1971-.6122,1.7356-.7083,1.3404-1.6189,2.5425-2.7184,3.5921-1.1668,1.1138-2.4779,2.0447-3.7673,3.0072-1.2079.9017-2.5423,1.5658-3.867,2.2534-.4715.2448-.8945.5279-1.2764.9027-.2034.1996-.5121.3663-.7912.4004-1.0665.1299-2.0688.4807-3.0473.8776-1.3194.5352-2.6869.8049-4.091.8908-.7832.0479-1.579.031-2.3583-.0552-.4596-.0508-.9146-.2588-1.3412-.4608-.4204-.1991-.8081-.4709-1.1989-.7279-.2153-.1416-.3924-.1334-.5881.0284-.7036.5816-1.3914,1.1853-2.1242,1.7277-.9425.6977-1.9026,1.3761-2.893,2.0029-.7889.4993-1.6172.9445-2.4582,1.3512-2.0306.9818-4.0589,1.9841-6.3144,2.3633-1.247.2096-2.5145.2804-3.7439-.012-1.1078-.2635-2.0652-.873-2.9139-1.6571-.514-.4748-.8818-1.0374-1.2417-1.6209-.2501-.4056-.3918-.4261-.7692-.1432-.8127.6093-1.6002,1.2537-2.4302,1.8379-.8385.5902-1.6815,1.1897-2.5834,1.6707-1.912,1.0198-3.834,2.031-5.8073,2.9227-1.9818.8955-4.0069,1.7103-6.0583,2.4311-1.6396.5761-3.3284,1.0326-5.0568,1.2992-.7086.1093-1.4162.2252-2.1232.3439-.4749.0797-.5433.1674-.5247.659.0172.4568.0543.9133.0602,1.3702.0106.811.0443,1.625-.011,2.4323-.0296.4314-.2027.8599-.3593,1.2713-.0464.1219-.2634.2647-.3908.2545-.4851-.0389-.9701-.1169-1.4447-.2255-.121-.0277-.2186-.2129-.3014-.3421-.1777-.2771-.3196-.5786-.5115-.8447-.2529-.3507-.356-.7353-.3574-1.1567-.0031-.8801-.0164-1.7604-.0019-2.6402.0093-.5701-.1788-.914-.7451-1.1797-.9656-.4531-1.6628-1.1633-1.8845-2.3151-.1822-.9463-.1175-1.8127.2893-2.663.0838-.1752.223-.3569.3852-.4557.8315-.5067,1.2592-1.2561,1.2612-2.2047.0019-.8773-.1031-1.7546-.1512-2.6324-.1557-2.8406-.3106-5.6813-.4571-8.5224-.0364-.7064-.0285-1.4151-.0636-2.1216-.0217-.4368-.1541-.5269-.5719-.4148-.2743.0736-.5386.1844-.8072.279-.8934.3145-1.79.3499-2.5952-.1889-.3183-.213-.6211-.5927-.7223-.9549-.1653-.5918-.2023-1.2309-.211-1.8512-.0057-.4064.2755-.7086.64-.9115,1.1568-.6439,2.3135-1.288,3.4629-1.9449.2349-.1342.4479-.3126.6535-.4907.2553-.2211.349-.511.3594-.8539.0566-1.8618.1094-3.7242.2056-5.5842.0388-.7499.1976-1.4928.2789-2.2414.2293-2.1109.4395-4.2239.6722-6.3344.0971-.8809,1.0804-1.305,1.808-.8069.5046.3454.8809.7874,1.1168,1.3542.0645.1551.1377.3383.2638.4307.6248.4581.658,1.1079.5488,1.7632-.2945,1.7665-.6599,3.5214-.9368,5.2904-.1337.8542-.1292,1.73-.192,2.5956-.0297.4102-.0823.8191-.0996,1.2296-.0058.1371.0247.3362.114.3986.0785.0548.2859-.0058.3961-.0775.7541-.4908,1.5-.9942,2.2436-1.501.6119-.417,1.2278-.8296,1.8228-1.2699,1.2365-.9152,2.5036-1.7902,3.6081-2.8759.6006-.5904,1.2981-1.0843,1.8795-1.6913.921-.9615,1.9733-1.806,2.6943-2.9529.1574-.2504.3457-.4832.536-.7105,1.4818-1.7699,2.3648-3.8279,2.8396-6.0627.1183-.5568.1114-1.1725.0144-1.7355-.145-.841-.7208-1.4769-1.3495-2.0017-1.4085-1.1758-3.0296-1.9085-4.8415-2.2696-2.0129-.4011-4.0288-.4283-6.0643-.3104-2.1679.1257-4.317.3647-6.4384.8389-1.8004.4025-3.6192.7328-5.4016,1.2024-3.2276.8503-6.4168,1.835-9.5409,3.0203-1.5331.5816-3.0923,1.1009-4.5989,1.744-1.823.7782-3.6175,1.6281-5.3963,2.504-1.1141.5485-2.2091,1.1514-3.2521,1.824-.858.5532-1.6423,1.2265-2.4286,1.8833-.3883.3244-.7468.7029-1.0474,1.1097-.3459.4681-.4065,1.0106-.1235,1.5531.1898.364.3751.731.5803,1.0863.2959.5126.1867.8606-.3606,1.0873-.6366.2637-1.4267.101-1.93-.3752-.429-.4059-.8051-.8508-.9997-1.4126-.2941-.849-.6027-1.6971-.8226-2.5665-.2127-.8409.1159-1.5452.6961-2.1825,1.5516-1.7041,3.4827-2.8626,5.4866-3.9253,1.2396-.6574,2.4795-1.3143,3.7194-1.9711.0705-.0374.1397-.0789.2137-.1078,3.7145-1.4521,7.4241-2.917,11.1459-4.3497,3.133-1.2061,6.3614-2.1179,9.6165-2.9143,2.1232-.5195,4.2702-.964,6.4568-1.1683,1.6442-.1537,3.2852-.3421,4.9276-.515Zm12.929,30.7844c-1.4689.0711-2.9466.0662-4.4046.2332-1.719.197-3.4235.5283-5.1292.8301-.8961.1586-1.782.376-2.6712.5728-.2432.0538-.4851.1186-.7214.1971-.389.1292-.7731.2729-1.1588.4119-1.039.3744-2.0775.7501-3.1167,1.124-.2802.1008-.418.3053-.4352.5949-.0238.3988-.0667.7985-.0571,1.1967.022.9126.0834,1.8241.1061,2.7367.0377,1.518.0572,3.0365.0849,4.5548.0121.6609.0022,1.3232.043,1.9823.091,1.4699.2058,2.9383.3145,4.407.0792,1.0697.1518,2.1402.2512,3.208.0556.597.1673.6703.7627.639.091-.0048.1832-.0103.2721-.0288.7019-.1462,1.3971-.3417,2.1058-.4349,1.5938-.2095,3.117-.6554,4.6079-1.2394,1.0388-.4069,2.0848-.7952,3.1277-1.1914.2764-.105.5626-.1894.8284-.3165.7507-.3589,1.4867-.7489,2.241-1.0999.6292-.2928,1.2917-.5164,1.9112-.827.8955-.4491,1.7694-.9423,2.6449-1.4304.4563-.2544.9206-.5054,1.3394-.8148,1.6296-1.2041,3.0938-2.5936,4.5071-4.0442,1.2205-1.2526,1.591-2.6679,1.0041-4.3219-.4405-1.2414-.5544-2.5115-.3663-3.8136.0473-.3273.0633-.6592.0939-.989.0287-.3099-.09-.5468-.381-.658-1.0205-.3899-2.0202-.8748-3.0748-1.1255-1.5441-.367-3.1334-.4829-4.7297-.3531Zm23.3682-1.886c-.0043-.0329-.0087-.0657-.013-.0986-1.2627.1744-2.5247.3535-3.7882.5216-.9936.1321-1.7671.6447-2.2919,1.463-.7139,1.1132-1.357,2.2724-2.0195,3.4181-.2454.4244-.4379.8804-.6934,1.2981-.597.9761-.844,2.0633-1.0477,3.1661-.0556.3011.0327.564.276.7665,1.2751,1.0615,2.7072,1.8606,4.2276,2.5023,1.228.5183,2.5266.7651,3.8457.9102.4388.0483.8196.1932,1.0691.5863.1166.1837.2797.2183.475.1323.1461-.0643.3127-.0994.4374-.1918,1.0812-.8013,2.167-1.5974,3.2258-2.4277.5016-.3934.915-.9022,1.4269-1.2789.6168-.4539.8219-1.0459.8697-1.7679.0662-1.0002.1813-1.9973.278-2.9954.0076-.0788.0351-.1558.054-.2335.1767-.7284.3718-1.4529.5237-2.1865.0962-.4646.1155-.9441-.2732-1.3158-.8451-.8084-1.816-1.4201-2.9346-1.7639-1.1854-.3643-2.4087-.5015-3.6475-.5044Zm21.9685-4.4403c-1.4094-.0974-2.7786.1796-4.1343.4857-1.4005.3162-2.7846.7326-4.0666,1.3877-.6508.3326-1.2236.8254-1.809,1.2753-.252.1937-.2415.4552-.1035.7672.4122.9325.5809,1.8953.1506,2.8805-.0548.1255-.099.2558-.1573.3796-.194.4124-.1348.7765.1285,1.1539,1.1043,1.5825,2.4768,2.8935,4.027,4.0237.6353.4631,1.2813.9184,1.9616,1.309.2482.1425.6568.2038.9112.101.9389-.3792,1.8522-.8262,2.7591-1.2797.672-.336,1.321-.7186,1.9774-1.0855,1.1168-.6244,2.2102-1.2773,3.1314-2.1895.5227-.5175.9033-1.1875,1.5992-1.5254.0661-.0321.1162-.1106.1579-.1775.4895-.7866.9631-1.5807,1.157-2.5047.1651-.7867.0846-1.5215-.2961-2.2543-.4087-.7867-1.0687-1.2287-1.8281-1.5729-.9155-.4149-1.8487-.7707-2.8594-.8947-.9009-.1105-2.5931-.2814-2.7066-.2797Zm-30.2604,22.1309c.6983-.1568,1.465-.3141,2.2222-.509.1961-.0505.362-.2183.5418-.3322-.1988-.1155-.3871-.2573-.5982-.342-.791-.3172-1.6149-.5634-2.3783-.9354-.8382-.4085-1.6239-.9252-2.431-1.3975-.3893-.2278-.631-.1189-.6798.3328-.0367.34-.0682.6848-.0535,1.0253.0424.9815.4606,1.5317,1.4039,1.7801.6134.1615,1.2481.2423,1.9727.3779Zm20.1415-6.3675c.5629-.0965,1.0465-.17,1.5249-.2688.1059-.0219.2653-.1266.2723-.2046.0099-.1103-.0876-.2394-.1617-.3446-.0425-.0603-.1336-.0839-.1959-.1329-.3654-.2872-.726-.5806-1.0936-.8649-.3589-.2776-.7161-.5594-1.0944-.8081-.0688-.0452-.311.0252-.3456.1008-.2371.5176-.447,1.0482-.6513,1.5801-.1095.2851-.0013.5123.2866.5927.5006.1398,1.0109.2445,1.4588.3502Z" />
		<path
			d="m96.3802,69.7095c-1.1167.1608-2.2403.2745-3.3568.4368-1.5002.2181-3.0003.4414-4.4926.7062-.7609.135-1.4989.3954-2.2577.5466-1.6754.3338-3.3603.6195-5.0353.9549-.7693.154-1.5191.4046-2.2874.5651-1.0705.2238-2.1484.4138-3.2263.5995-.5944.1024-1.1557.0246-1.6322-.4032-.2203-.1978-.4605-.3758-.7052-.5431-.4125-.2819-.5889-.6733-.604-1.1615-.0191-.6167-.0548-1.2328-.0776-1.8494-.0165-.4456.2071-.692.5871-.9435.9141-.6052,1.9635-.5253,2.9565-.7326.2264-.0473.4308-.192.6545-.2629.1694-.0537.3539-.087.5308-.0834.2354.0048.4759.1043.7038.0769,1.7197-.2068,3.4374-.4308,5.1546-.6574,1.0843-.1431,2.1702-.2793,3.2493-.4558,1.3145-.215,2.621-.4781,3.9338-.7035,1.1556-.1984,2.3167-.3644,3.4725-.5611,1.6406-.2791,3.2758-.5902,4.9184-.8563,1.7888-.2898,3.5834-.544,5.3756-.8132,1.6008-.2405,3.201-.4856,4.8029-.7187,1.241-.1806,2.4845-.3431,3.7262-.5186,1.7712-.2503,3.5397-.5216,5.3133-.7536,1.9096-.2498,3.8269-.4419,5.7351-.7009,2.033-.276,4.0585-.6071,6.089-.9023,1.2857-.1869,2.5781-.3304,3.8607-.5361.6956-.1115,1.3712-.3471,2.0663-.4643.8417-.1418,1.7001-.1853,2.5415-.3286,1.8763-.3194,3.7465-.6752,5.6194-1.0145,1.9057-.3452,3.8127-.6831,5.7171-1.0352.7714-.1426,1.5425-.2941,2.3035-.4827.29-.0719.5599-.2445.8244-.3967.6205-.3571,1.2725-.491,1.969-.2991.1585.0437.3289.1291.44.2464.9213.9733,1.2131,2.1958,1.1614,3.4695-.0429,1.0558-1.0789,1.7026-2.1239,1.6479-.7613-.0398-1.5388.1074-2.3004.2268-1.3398.2101-2.6705.4774-4.0093.6942-1.9129.3098-3.831.5878-5.7446.8943-1.9911.319-3.9769.6721-5.97.9777-.9572.1468-1.93.1896-2.8882.3307-1.7808.2622-3.5546.572-5.3345.8413-.732.1108-1.4733.1581-2.2081.2521-2.1256.2718-4.251.5452-6.3743.8345-.6427.0876-1.2753.2474-1.9171.3433-2.3106.3453-4.6265.6568-6.934,1.0215-1.5869.2508-3.1624.5739-4.7448.854-.7747.1372-1.5629.2102-2.328.3862-.6624.1524-1.3009.4088-1.9496.6203-.1081.0352-.2121.1005-.3218.1106-1.1542.1863-4.1415.4339-4.8829.5406Z" />
		<path
			d="m164.3082,21.7331c-.0021.9304-.6637,1.7597-1.4876,2.037-1.2299.4139-2.4588.8384-3.6609,1.3256-1.4871.6026-2.9427,1.2826-4.4196,1.9111-.5337.2271-1.0911.3981-1.6351.6016-1.206.4511-2.413.8999-3.6148,1.3623-1.0625.4088-2.1206.8291-3.1746,1.2593-.1538.0628-.2739.2083-.4096.3155.1533.0822.2988.2125.4611.2388.9557.1552,1.9156.2833,2.8734.4259,1.3641.2031,2.7275.4102,4.0911.617,1.2613.1912,2.5282.3529,3.7813.5881.7581.1423,1.506.3661,2.2374.6152.7079.241,1.4031.5315,2.0785.8537,1.0381.4952,1.5469,1.4001,1.6832,2.4979.0763.6149.0921,1.2608-.0123,1.8673-.0818.4754-.3137.9729-.6157,1.351-.4424.5537-.9474,1.0994-1.5318,1.4887-1.3563.9035-2.8321,1.6015-4.2863,2.341-2.0677,1.0514-4.2215,1.8915-6.3356,2.8279-1.4578.6457-2.9468,1.2209-4.4023,1.8715-.9983.4463-1.9724.9506-2.937,1.4671-.2788.1493-.4883.4294-.7273.652-.1078.1004-.2021.2167-.3166.3081-.2842.2269-.5836.4348-.8638.6663-.4846.4003-.8547.4341-1.4121.1305-.5934-.3232-1.1264-.6987-1.3484-1.3828-.0316-.0975-.085-.1893-.1067-.2884-.193-.8825.4922-2.5749,1.2458-3.0583,1.3554-.8695,2.7996-1.5595,4.2868-2.1753,1.1035-.4569,2.1646-1.0155,3.2571-1.5005.8107-.3599,1.6445-.6673,2.462-1.0124.3351-.1414.6488-.333.9818-.4801,1.3971-.6173,2.8221-1.1773,4.1899-1.8535,1.1832-.5849,2.3073-1.291,3.4482-1.9595.347-.2033.3254-.4208-.0522-.5756-.2602-.1067-.5431-.1664-.8212-.2195-1.2979-.2478-2.5935-.5127-3.8981-.7191-.9902-.1567-1.9949-.2192-2.9895-.3508-1.8186-.2405-3.641-.4627-5.4494-.7665-1.2815-.2152-2.5026-.6638-3.4794-1.5678-.8492-.7859-1.518-1.7415-1.25-2.9518.2439-1.1017.7137-2.1415,1.7057-2.8449.8896-.6308,1.7908-1.2235,2.8669-1.4873.0661-.0162.1349-.0362.1922-.0712,1.2755-.7782,2.7583-.9995,4.1242-1.5354.5054-.1983,1.0431-.3137,1.5661-.467.0438-.0128.0889-.0229.1308-.0403.6171-.2571,1.2392-.5032,1.8496-.7755,1.6244-.7248,3.2588-1.4298,4.8605-2.2022,1.3337-.6432,2.6504-1.3303,3.9288-2.0766.7498-.4377,1.3758-.1928,2.0321.1145.1222.0573.2306.1986.2901.3269.3477.7497.6028,1.5266.6133,2.3009Z" />
		<path
			d="m125.5162,31.9706c.0485-1.2017.0966-2.2862.1346-3.3709.0237-.6771-.1306-.8198-.7815-.6266-.7306.2169-1.4441.4924-2.1622.7504-.9321.3349-1.8621.6757-2.7916,1.018-.3706.1365-.7506.1761-1.0908-.034-.4522-.2794-.898-.5787-1.3052-.9191-.4479-.3744-.4716-.91-.4165-1.4521.0507-.499.1037-.9981.1347-1.4985.0189-.3059.1341-.496.4288-.626.5195-.2292,1.0588-.3141,1.6149-.3981.7169-.1084,1.4214-.3124,2.1234-.5042,4.3964-1.201,8.791-2.4085,13.1853-3.6172,2.328-.6403,4.6736-1.2252,6.975-1.9507,1.8545-.5847,3.7481-.9676,5.6415-1.364.4221-.0884.8831-.0101,1.3243.019.3236.0214.4989.2386.4902.553-.03,1.0786-.3013,2.0787-1.0843,2.8661-.1656.1665-.4239.2641-.6571.3355-.9021.2762-1.8114.5284-2.7178.7906-1.7935.5189-3.5879,1.0349-5.3793,1.5611-.3708.1089-.7263.2692-1.0954.3844-1.1526.3599-2.312.6983-3.4619,1.0664-1.148.3674-2.2873.7621-3.4315,1.1415-.3785.1255-.758.2495-1.1415.3585-.3746.1065-.5775.3374-.6114.7288-.1229,1.4213-.3285,2.8406-.3594,4.2637-.0521,2.3972-.0158,4.7959.3133,7.1821.1699,1.2322.2195,2.4809.3832,3.7143.1107.8346.3745,1.6491.4796,2.484.1006.7992.3507,1.4483,1.0655,1.8957.883.5527,1.1051,1.395.9343,2.3821-.0308.1781-.0392.3695-.0104.547.1127.6947-.1704,1.2687-.5128,1.8335-.1771.2922-.4164.4351-.7609.4244-.5994-.0187-1.1055-.1959-1.5858-.6006-1.1355-.9567-1.5172-2.284-1.8551-3.6201-.6975-2.7575-1.2469-5.5477-1.5027-8.3843-.1805-2.0011-.2922-4.0084-.4325-6.0131-.0335-.4784-.0586-.9574-.0806-1.3204Z" />
	</g>
</svg>
