<svg xmlns="http://www.w3.org/2000/svg" width="87" height="87" viewBox="0 0 87 87">
  <g class="box">
    <rect width="87" height="87" fill="none" />
  </g>
  <g class="splat">
    <path
      d="m14.0879,44.8718c-1.5511-.4753-3.1022-.9757-4.6658-1.4135-2.3892-.663-3.9778-2.064-4.0028-4.6658-.0125-2.1015,1.1008-3.4274,3.2773-3.7026,1.5636-.1876,3.2023-.1251,4.6533-.6129,1.1133-.3753,2.5768-1.3385,2.777-2.2641.2001-.9757-.638-2.6394-1.5386-3.2648-1.7888-1.2509-4.0028-1.8888-5.9167-3.0021-2.2391-1.3009-4.4532-2.6894-6.4796-4.2906-1.5636-1.2384-2.2391-3.0272-.763-4.8159,1.376-1.6637,3.4024-2.5518,5.2162-1.2634,2.1765,1.5511,4.1279,3.54,5.7791,5.6415,1.5386,1.9639,3.1022,3.54,5.6665,3.7026,2.7645.1876,3.8027-.8256,3.7902-3.6151,0-.7881-.0751-1.5761-.1251-2.3517-.3002-4.7534,1.6512-6.4546,6.4171-5.3663,3.4775.8006,6.8549,1.3635,10.4324.3502,1.9139-.5504,2.9896-1.2884,3.0647-3.3649.0375-1.1633.2752-2.3642.7005-3.4399.7505-1.9014,2.2141-2.9396,4.3281-2.5143,1.8638.3753,3.1522,2.5143,2.827,4.5657-.0625.3878-.2627.738-.3628,1.1133-.8756,3.1522-.688,3.5275,2.3517,3.54,2.7019.0125,5.4414-.3127,5.9417,3.2648,2.5893-.6004,3.5275-1.9264,3.9028-3.9528.3502-1.9139.8256-3.8653,1.5886-5.6415.9757-2.2766,3.0397-3.5901,5.3913-2.9146,1.5136.4378,3.1522,1.8388,3.8903,3.2523,1.1008,2.0765-.1126,4.0904-1.7763,5.554-1.4761,1.2759-3.2898,2.2016-4.6158,3.6026-.6254.663-.7756,2.1765-.5004,3.1022.1376.4753,1.7137.5879,2.6519.738,1.1758.1876,2.3767.2502,3.565.3628-.2377,1.2134-.4253,2.4392-.738,3.6401-.1876.713-.5754,1.376-1.1633,2.7269,1.5261-.4253,2.4643-.638,3.3649-.9507,2.1015-.7255,4.1655-1.5636,6.2795-2.2266,1.376-.4253,2.9896-.2127,3.0397,1.426.0375,1.1383-.8256,2.7645-1.7888,3.3524-1.1133.688-2.8145.3377-4.1905.713-1.2759.3628-2.877.7881-3.5525,1.7387-.9882,1.3885.663,2.0515,1.5261,3.0021.6254.688.8006,2.5518.3002,3.3399-1.351,2.114-.5379,3.3899,1.0257,4.6908.5004.4128,1.0132.8381,1.4635,1.3134,1.9889,2.1515,1.8638,3.515-.6004,4.9911-1.4385.8631-3.2648,1.3385-3.0772,3.565.1876,2.2766,1.7262,3.4024,3.6651,4.1404,2.0765.7756,4.203,1.451,6.2419,2.3141,2.7144,1.1633,3.6276,2.7019,2.6769,4.3406-1.401,2.4142-3.1272,1.0507-4.7033.2252-3.1147-1.6512-6.1794-3.3774-9.5568-5.2287-.2627.9882-.5379,1.8013-.7005,2.6394-.4753,2.6144-1.7763,4.178-4.6408,4.4282-3.3649.3002-3.9403,1.5761-2.3767,4.6658.6505,1.2884,1.6262,2.4517,2.0264,3.7902.5379,1.7638.763,3.8903-1.3385,4.8034-2.089.9131-3.4525-.5879-4.4156-2.2641-.5129-.9006-.713-1.9639-1.2009-2.8896-1.2259-2.3392-2.7269-2.5518-4.5657-.663-.638.6505-1.1633,1.426-1.7888,2.089-2.0515,2.139-3.6901,2.3267-5.604.0876-1.7262-2.039-3.4399-2.5268-5.8291-1.4761-2.4017,1.0507-2.6144,3.0397-2.5143,5.2287.0125.3878.0375.7881.0375,1.1758-.0125,2.877-1.1508,4.3656-3.3023,4.3281-2.4017-.05-4.153-2.3016-3.4775-5.0161.3878-1.5511,1.6136-2.877,2.3392-4.3656.5879-1.2009.9882-2.4893,1.4635-3.7402-1.1383-.1126-2.3267-.0876-3.4149-.3753-.9757-.2627-2.1015-.688-2.7394-1.4135-1.7763-2.0264-3.1898-2.1015-4.3406.2627-.7255,1.5011-.9632,3.2398-1.4635,4.8535-.8881,2.8645-1.6011,5.8041-2.802,8.5311-1.0883,2.4768-3.3023,3.2273-5.0911,2.2641-1.7387-.9257-2.6644-3.4274-1.5011-5.5039,1.6011-2.8395,3.6276-5.4289,5.5039-8.0933.8256-1.1758,1.8638-2.2016,2.6144-3.4274,2.3141-3.8027,2.064-4.1655-2.0765-6.2294-1.0758-.5379-2.2391-2.0264-2.3267-3.1522-.2127-2.6769-1.4635-3.7277-3.9403-3.8527-.638-.0375-1.2884-.2752-1.8763-.5379-2.5143-1.1258-2.9396-2.827-1.1883-4.941.9632-1.1758,2.039-2.2516,3.0647-3.3649-.0626-.4503-.1376-.8631-.2127-1.2884Z" />
  </g>
  <g class="bee">
    <path
      d="m44.8693,60.5804c-2.7027,0-5.2464-1.3778-7.9491-1.3778-2.9677,0-3.4996,3.7625-5.5115,3.7625-1.0434,0-.9539-1.2718-.9539-1.2718,0-10.8638,4.5046-21.1977,4.5046-32.0616,0-2.8087-4.4515-.159-4.4515-2.5968,0-3.8156,11.3408-5.5114,14.2555-5.5114,1.3248,0,2.9146.053,2.9146,1.8018,0,3.9216-1.5899,7.6842-1.5899,11.6058,0,.212.1591.5829.212.7949,2.7557-1.8548,5.5115-3.6566,8.9561-3.6566,5.5115,0,7.8432,3.9216,7.8432,9.009,0,10.9699-6.8363,19.502-18.2301,19.502Zm3.0737-20.3499c-1.4308,0-2.7557.7949-3.0737,2.2787l-1.6958,8.0022c-.212,1.0069-.53,2.0668-.53,3.1267,0,.7419.4769,1.4838,1.2718,1.4838,4.5576,0,6.7303-8.0552,6.7303-11.6588,0-1.8548-.636-3.2326-2.7027-3.2326Z" />
  </g>
</svg>