<?xml version="1.0" encoding="UTF-8"?>
<svg id="Layer_1" data-name="Layer 1" xmlns="http://www.w3.org/2000/svg" width="246.57" height="31" viewBox="0 0 246.57 31">
  <path d="m246.57,0c-3.5235.7741-4.4117,3.3964-5.3489,5.2167-1.0084,1.9652-3.3722,2.5985-5.5871,2.9319-.7782.1177-1.5464.2648-2.3146.4315-2.5441.5295-4.4796,1.7454-5.1381,4.4126-.1197.4903-.3292.9806-.5886,1.4218-1.0476,1.765-2.7337,1.9219-4.1903.4609-.858-.8629-1.6661-1.8827-2.7137-2.4318-3.003-1.5787-7.7221-.5393-9.8073,2.1082-2.7137,3.4418-3.1128,7.3544-2.2548,11.5218.2095,1.0198.2395,2.1671,0,3.1771-.2794,1.1473-1.287,1.6964-2.5341,1.7454-1.2371.0588-2.0952-.5589-2.4044-1.5983-.3093-1.0688-.3991-2.2455-.3592-3.3732.0599-1.5297.5088-3.0594.4789-4.5793-.0499-2.7456-1.3668-3.9419-4.1803-3.9615-1.5564-.0098-2.6539-.608-3.3522-1.9219-.878-1.6474-1.716-3.3144-2.5042-5.001-.5088-1.0982-.9777-2.2063-2.4743-2.02-1.5165.1863-3.1327.1471-3.9309,1.9415-1.3768,3.0888-2.2947,3.1379-4.32.3334-1.5963-2.1965-3.1826-2.5495-5.5272-1.2061-.6784.3824-1.317.8433-2.0153,1.1963-1.7061.8825-2.584.7649-4.0905-.4805-1.8058-1.5101-2.5541-1.618-4.5594-.4805-1.0775.608-2.0752,1.3434-3.0928,2.0494-1.5265,1.059-3.0529,1.1669-4.7889.3824-1.4666-.657-3.033-1.2355-4.6193-1.4905-2.4344-.3922-3.881.608-4.5295,2.9417-.2893,1.0394-.3093,2.1475-.429,3.2261-.0998.8923-.0599,1.8141-.2794,2.6672-.449,1.7454-1.2571,2.2553-2.9631,2.0494-1.6761-.2059-2.4044-.9316-2.3745-2.6966.0499-3.6968-1.2172-6.8052-4.0506-9.2371-1.6262-1.3924-3.2824-1.7062-4.8488-.657-.848.5589-1.4965,1.5395-1.9654,2.4613-.3592.706-.2993,1.6278-.439,2.4515-.4589,2.5593-2.2448,3.4418-4.5794,2.2651-.5188-.2648-1.0077-.5982-1.5364-.8531-2.0552-.9806-3.5119-.1863-3.2824,2.0102.2195,2.0886.8281,4.138,1.3469,6.1875.5288,2.0788-.0499,3.8635-1.8457,5.05-1.277.8433-2.6439,1.1277-4.0706.402-1.5165-.7649-2.4842-1.9317-2.2847-3.6968.1297-1.1375.3691-2.2749.7183-3.3732.8281-2.628,1.0975-5.2657.5687-7.9917-.5288-2.7456-2.9232-5.2559-5.6469-5.7756-1.0476-.1961-1.8856.1373-2.6638.8629-1.4866,1.3826-2.4443,1.4415-4.1903.4118-.2794-.1667-.5388-.3628-.8181-.5393-2.0752-1.3042-3.4321-1.0884-5.198.6766-.9977.9904-2.0153,2.0298-3.2126,2.7554-1.8457,1.1081-3.9309,1.0982-5.8265.1079-1.8956-.9904-3.7314-2.1181-5.4673-3.3634-2.5142-1.8043-5.0383-2.1082-7.6323-.4413-2.8933,1.8631-5.5372,4.0498-5.8465,7.7662-.1197,1.5101.2195,3.0496.3492,4.5793.1097,1.3434.3392,2.6868.2993,4.0204-.0499,1.8435-.7982,2.6574-2.2847,2.8535-2.0253.255-3.4819-.353-3.8611-2.1082-.3492-1.5885-.1995-3.2948-.1696-4.9519.02-1.5983.419-3.2359.1696-4.7852-.1896-1.1669-.858-2.6476-1.8058-3.2261-2.9532-1.8435-6.1657-3.1771-9.8073-1.7749-1.9455.755-3.871,1.5493-5.8564,2.2063-3.1627,1.0394-4.4198.6472-6.5249-1.8337-2.5142-2.9515-4.5993-3.5791-8.1012-1.9906-2.0951.9512-4.0805,1.1571-6.2455.5295-2.5441-.7354-4.6093.049-6.3253,1.971-2.145,2.3926-3.9109,2.2848-5.5372-.4315-.8081-1.3434-1.8557-2.2946-3.3123-2.8633-.6086-.2353-1.1872-.5589-1.8058-.7354-3.6316-1.0394-4.1751-3.8808-6.4415-6.1473C2.5336.5156,1.459,0,0,0c81.4114,0,162.8227,0,244.2341.0196.5886,0,1.6039-.0196,2.3359-.0196Z" fill="#eee"/>
</svg>