<?xml version="1.0" encoding="UTF-8"?>
<svg xmlns="http://www.w3.org/2000/svg" width="90.1538" height="130" viewBox="0 0 90.1538 130">
  <path
    d="m90.0256,0H.0256v69.7961c-.0522,12.069-.2165,54.1412,1.9044,56.6578,3.1094,3.6895,7.6641,1.4217,11.0226-2.7462,2.4401-3.0282-.5095-24.0332-.4037-28.7485.1741-7.7637,1.9482-13.6529,2.0112-15.1121,1.3392,3.3152,2.3765,9.1126,2.5428,12.9371.2816,6.4745-1.5854,13.4646-.5347,19.8058.7974,4.8124,5.0083,7.9626,9.933,6.7545,5.9518-1.4601,7.4559-7.6531,7.8168-12.9551.4904-7.2034-1.733-6.9415-2.0759-14.142-.1359-2.8544-1.749-6.36-1.4908-9.2121.1624-1.7933.3923-3.6118,1.5269-5.0964.6468-.8491,1.4536-1.4999,2.4205-1.9522,1.4668-.6199,7.7667-4.5148,13.21-2.8177,1.2413.387,1.9296,4.929,2.0012,5.6619.5356,5.4773.0306,5.9686-.7173,8.1672-.0449,3.5177-.2301,7.0336-.1729,10.5522.0046.2855.0138.5709.0221.8562.3336.8474.627,1.7037.8864,2.5689.3235.4757.664.9402,1.0289,1.3821,1.0144,1.2287,2.1257,2.4646,3.3821,3.4329,2.0044.7047,4.2331.8763,6.2492.3715.2692-.0981.5458-.1799.8077-.291.7426-.3149,1.4921-.7258,2.2135-1.1669.8666-.73,1.476-1.6923,1.904-2.7881.2397-2.6903.3276-5.1636.3825-6.8652.1109-3.4381-1.2065-7.913-1.7686-11.6691-.4279-2.8592-1.1672-3.2726.0963-6.0571,1.4907-3.2852,4.5051-2.0332,6.1458.54,3.4536,5.4169,1.8139,14.9188,2.1121,20.997.2855,5.8185,3.4084,11.212,9.9955,8.3583,5.9046-2.5581,7.7161-8.7521,7.6761-14.5428-.1276-18.4769-.1276-92.6772-.1276-92.6772Z"
    fill="#121212" />
</svg>