<?xml version="1.0" encoding="utf-8"?>
<!-- Generator: Adobe Illustrator 27.2.0, SVG Export Plug-In . SVG Version: 6.00 Build 0)  -->
<svg version="1.1" id="Layer_1" xmlns="http://www.w3.org/2000/svg" xmlns:xlink="http://www.w3.org/1999/xlink" x="0px" y="0px"
	 viewBox="0 0 138 56" style="enable-background:new 0 0 138 56;" xml:space="preserve">
<style type="text/css">
	.st0{fill:#FFFFFF;}
</style>
<path class="st0" d="M137.3,1.9c-0.3,0.1-0.5,0.1-0.8,0.1c-1.9-0.1-3.8,0-5.5,0.8c-1,0.4-2.1,1-3,1.6c-2,1.2-3.8,2.8-5.1,4.7
	c-0.9,1.3-1.6,2.8-2,4.4c-0.8,2.8-0.8,5.6-0.5,8.4c0.3,2.6,0.8,5.2,1.3,7.8c0.5,2.7,1.2,5.3,0.9,8c-0.2,2.2-1.1,4.1-3.2,5.2
	c-1.7,0.9-3.4,0.6-5-0.3c-1.8-1-2.5-2.7-2.7-4.6c-0.2-1.9,0.1-3.8,0.4-5.7c0.4-3.5,0.8-6.9,1.1-10.4c0.2-1.8,0-3.6-0.5-5.4
	c-0.6-1.9-1.7-3.4-3.3-4.5c-1.3-0.9-2.8-1.5-4.4-1.7c-2.5-0.2-4.4,0.7-5.9,2.7c-1,1.2-1.5,2.7-2.1,4.1c-0.2,0.6-0.5,1.2-0.9,1.7
	c-0.8,1-1.3,2.2-2.5,3.3c-2.6,2.2-3.3,2.1-4.3,2.4c-1.5,0.5-3,0.2-4.5-0.5c-1.4-0.6-2.6-1.5-3.7-2.5c-1.1-0.9-2.2-1.6-3.5-2.1
	c-2.9-1-6.1-0.4-8.1,2c-0.7,0.9-1.1,1.9-1.4,3c-0.6,2.5-0.5,5.1-0.1,7.6c0.4,3,1,5.9,1.5,8.9c0.4,2.3,1,4.7,0.9,7
	c-0.1,2.1-0.5,4.1-1.7,5.9c-1.3,2-3.5,2.4-5.6,1.8c-2.4-0.7-3.6-2.4-4-4.7c-0.5-2.3-0.4-4.5-0.1-6.8c0.2-1.7,0.5-3.4,0.7-5.2
	c0.4-3.3,0.9-6.6,1.2-10c0.1-1.2,0-2.5-0.2-3.7c-0.2-1.3-0.4-2.6-0.7-3.9c-0.8-3.3-2.7-5.8-5.7-7.3c-2.2-1.1-4.6-1.3-7-0.4
	c-1.2,0.4-2.3,0.9-3.2,1.7c-1.4,1.2-2.1,2.7-2.4,4.5c-0.3,2-0.1,3.9,0.1,5.9c0.4,2.7,0.7,5.4,1,8.1c0.2,1.6-0.1,3.2-0.9,4.7
	c-1.2,2.6-4.5,3.5-6.9,1.9c-1.4-0.9-2.2-2.2-2.4-3.9c-0.3-1.8-0.1-3.6,0.2-5.4c0.5-2.8,1.1-5.6,1.6-8.5c0.4-2.2,0.5-4.4,0.1-6.6
	c-0.5-2.6-2-4.4-4.4-5.6c-2.1-1-4.2-0.8-6.3-0.2c-1.3,0.4-2.5,0.9-3.8,1.2c-1.8,0.5-3.4,0.1-4.8-1.2c-1.5-1.3-2.9-2.8-4.4-4.1
	c-2-1.8-4.1-3.3-6.8-4C3,2.1,2.1,1.9,1.1,1.9C0.4,2,0.1,1.6,0,1.1C-0.1,0.4,0.3,0,1.1,0C2.6,0,4,0,5.5,0C13.8,0,22,0,30.3,0
	c7.5,0,15,0,22.5,0C59.6,0,66.3,0,73,0c5.8,0,11.6,0,17.4,0c0.1,0.2,0.2,0.4,0.3,0.6c0-0.2,0-0.4-0.1-0.6c0.6,0,1.3,0,1.9,0
	c7,0,14.1,0,21.1,0c6.3,0,12.6,0,18.8,0c1.4,0,2.8,0,4.2,0c0.4,0,0.8,0.2,1,0.4C138.2,0.9,138,1.7,137.3,1.9z"/>
</svg>
