<?xml version="1.0" encoding="UTF-8"?>
<svg id="Layer_1" data-name="Layer 1" xmlns="http://www.w3.org/2000/svg" width="90" height="130" viewBox="0 0 90 130">
  <path d="m0,0v50.3178l.0224-.0012c.0552,4.4453,2.636,9.6158,6.1801,11.8044,10.2161,6.3042,10.3508,6.8294,7.9477,18.8277-.9911,4.9318-1.8483,9.9648-2.0833,14.9982-.2186,4.3893,2.4194,7.7109,6.6541,8.6089,4.3349.9153,7.3263-1.4575,9.376-5.4232,2.6213-5.1007,1.4451-9.7951-.7058-14.5911-1.5962-3.5586-3.5452-7.1176-4.2678-10.8967-1.1258-5.9145,1.9994-10.2022,6.7883-10.6089,4.6546-.3898,7.9481,2.5082,8.5863,8.3211.4036,3.6094.1515,7.3377-.235,10.9644-1.2773,11.7443-2.8543,10.8652-4.1147,22.6096-.4032,3.8976-.6718,7.9141-.2686,11.8116.7226,7.118,7.3263,13.4561,13.1566,13.2526,5.2261-.1862,10.4519-6.033,11.2416-13.0321.3361-3.0673.2857-6.2535-.1679-9.2869-1.9327-13.0659-4.1191-13.5089-6.0014-26.5918-.3253-7.9669.7018-11.5916,1.8583-13.3195,2.8063,1.6271,3.2307,10.0595,4.2078,11.8282,1.0762,2.9859,4.8561,3.6098,6.9398,3.2366,2.0833-.3728,4.2342-3.1858,5.36-5.4397,1.0587-2.1354,1.1765-4.9483,1.0754-7.4397-.2686-6.2535,1.6637-10.7105,7.7463-13.4388,4.8565-2.1862,8.3681-6.1519,10.7036-11.3715V0H0Z" fill="#121212"/>
</svg>