<?xml version="1.0" standalone="no"?>
<!DOCTYPE svg PUBLIC "-//W3C//DTD SVG 20010904//EN"
 "http://www.w3.org/TR/2001/REC-SVG-20010904/DTD/svg10.dtd">
<svg version="1.0" xmlns="http://www.w3.org/2000/svg"
 width="1024.000000pt" height="1024.000000pt" viewBox="0 0 1024.000000 1024.000000"
 preserveAspectRatio="xMidYMid meet">
<metadata>
Created by potrace 1.14, written by Peter Selinger 2001-2017
</metadata>
<g transform="translate(0.000000,1024.000000) scale(0.100000,-0.100000)"
fill="#000000" stroke="none">
<path d="M4829 10236 c-2 -2 -49 -6 -104 -10 -55 -3 -111 -8 -125 -10 -14 -3
-52 -7 -85 -10 -33 -3 -69 -8 -80 -10 -11 -2 -42 -7 -70 -10 -142 -18 -338
-60 -615 -130 -346 -88 -858 -303 -1192 -501 -9 -5 -36 -21 -59 -33 -106 -58
-426 -279 -545 -375 -445 -361 -798 -741 -1078 -1162 -157 -236 -212 -328
-318 -535 -83 -163 -241 -524 -253 -580 -2 -8 -13 -42 -26 -75 -18 -49 -68
-204 -84 -265 -23 -83 -65 -249 -69 -269 -3 -14 -12 -57 -20 -96 -21 -97 -33
-165 -41 -224 -2 -14 -4 -26 -5 -26 -1 0 -3 -13 -5 -30 -2 -16 -7 -48 -10 -70
-3 -22 -8 -60 -10 -85 -3 -25 -7 -61 -10 -80 -27 -231 -28 -820 -1 -1050 3
-19 7 -62 11 -95 3 -33 8 -69 10 -80 3 -11 7 -38 10 -60 9 -70 30 -183 61
-344 7 -36 83 -331 94 -366 170 -537 367 -956 651 -1381 54 -82 225 -313 275
-374 233 -279 440 -491 691 -702 188 -159 514 -391 673 -480 25 -14 70 -40
100 -58 133 -79 424 -219 614 -295 192 -76 533 -188 642 -209 10 -2 57 -13
104 -25 47 -11 96 -22 110 -25 14 -2 36 -7 50 -10 14 -3 39 -8 55 -11 17 -3
68 -11 115 -19 89 -15 142 -23 225 -32 28 -3 64 -7 80 -9 186 -27 868 -27
1060 0 17 3 53 7 80 10 860 100 1724 443 2420 960 234 174 380 300 590 510
292 291 520 582 762 970 12 20 79 136 120 210 208 373 405 904 499 1349 17 80
26 125 30 151 3 17 11 66 19 110 7 44 16 100 19 125 3 25 8 65 11 90 12 105
15 130 22 225 16 197 8 789 -11 905 -3 14 -7 52 -10 85 -3 33 -8 69 -10 80 -2
11 -7 45 -11 75 -36 280 -146 712 -255 1001 -22 59 -40 109 -40 112 0 4 -11
30 -24 59 -13 29 -49 110 -79 179 -85 189 -215 434 -299 562 -21 32 -38 61
-38 64 0 11 -185 275 -265 378 -214 276 -490 569 -721 765 -215 184 -390 311
-679 495 -50 32 -186 108 -320 179 -108 58 -316 152 -465 211 -128 50 -384
139 -433 150 -12 2 -53 14 -92 25 -38 11 -79 22 -90 24 -11 2 -47 11 -80 19
-33 9 -71 18 -85 21 -14 2 -50 10 -80 16 -30 6 -66 13 -80 15 -14 2 -61 11
-105 19 -45 8 -112 17 -150 21 -39 4 -72 9 -75 10 -3 2 -43 6 -90 10 -47 4
-98 10 -115 12 -36 5 -691 14 -696 9z m780 -1175 c94 -18 161 -51 208 -104 60
-69 72 -121 67 -297 -2 -80 -6 -163 -9 -185 -2 -22 -7 -65 -10 -95 -3 -30 -8
-66 -10 -80 -3 -14 -7 -41 -9 -60 -4 -34 -30 -188 -41 -240 -3 -14 -8 -38 -10
-55 -3 -16 -19 -95 -36 -175 -54 -262 -69 -335 -73 -364 -3 -16 -10 -52 -15
-80 -6 -28 -12 -64 -15 -81 -2 -16 -9 -59 -15 -95 -5 -36 -13 -92 -16 -125 -4
-33 -8 -67 -10 -75 -6 -22 -18 -225 -18 -289 0 -41 26 -160 39 -179 1 -2 55
33 120 76 547 365 910 526 1299 576 112 14 339 15 455 1 91 -11 270 -57 366
-94 308 -119 559 -383 694 -728 39 -99 94 -304 106 -393 3 -25 8 -53 9 -62 12
-59 20 -219 19 -378 0 -274 -16 -479 -54 -700 -5 -30 -12 -73 -16 -95 -3 -22
-10 -58 -15 -80 -13 -56 -15 -65 -24 -110 -5 -22 -9 -42 -10 -45 -11 -39 -28
-98 -30 -110 -22 -98 -121 -375 -184 -515 -300 -667 -753 -1166 -1357 -1495
-275 -150 -630 -274 -939 -329 -33 -6 -71 -13 -85 -16 -34 -7 -85 -14 -150
-20 -30 -3 -66 -8 -80 -10 -96 -15 -439 -22 -541 -10 -76 8 -222 33 -299 51
-36 9 -72 17 -80 19 -44 10 -152 38 -290 73 -146 38 -314 74 -405 87 -22 4
-98 8 -170 10 -147 4 -216 -9 -320 -62 -105 -55 -181 -126 -339 -323 -185
-230 -271 -294 -396 -294 -80 0 -118 22 -153 87 -21 39 -22 54 -22 232 1 165
10 417 19 510 2 17 6 66 10 110 4 44 9 96 11 115 2 19 7 62 10 96 3 33 7 71
10 85 2 13 6 49 10 80 3 31 7 65 9 75 2 11 7 44 11 74 4 30 9 62 10 70 1 8 6
40 10 70 4 30 9 62 10 70 1 8 6 35 10 60 4 25 9 52 10 60 1 8 6 35 10 60 4 25
9 54 11 65 2 10 10 58 19 105 8 47 17 96 20 110 3 14 8 39 10 55 3 17 17 86
30 155 13 69 27 136 29 150 7 37 61 299 91 435 14 66 27 129 29 140 3 11 12
54 21 95 9 41 18 84 21 95 6 34 55 269 59 285 11 50 98 484 105 525 11 63 38
202 44 235 3 13 8 42 11 65 3 22 8 51 10 65 3 14 8 36 10 50 3 14 8 45 11 70
3 25 7 52 9 60 2 8 7 33 10 55 3 23 7 50 9 61 2 11 7 47 11 79 4 33 9 67 10
75 2 8 6 40 10 70 3 30 8 66 10 80 2 14 6 50 10 80 3 30 8 71 11 90 5 47 11
108 19 210 4 47 8 103 10 125 8 89 18 368 18 485 0 151 -12 199 -62 249 -65
65 -134 79 -401 82 -276 3 -354 53 -346 224 5 112 66 225 174 319 20 17 40 36
46 41 109 101 458 262 781 360 112 34 369 101 425 112 14 2 45 9 70 14 25 6
56 13 70 15 14 2 45 9 70 14 25 5 59 12 75 14 17 3 71 12 120 20 145 25 285
45 360 51 38 4 72 8 75 10 3 2 51 7 105 10 55 4 101 8 103 9 8 8 327 -4 381
-13z"/>
<path d="M5859 5656 c-2 -2 -22 -6 -44 -9 -141 -20 -293 -115 -365 -227 -46
-72 -66 -131 -105 -313 -75 -356 -134 -633 -139 -657 -2 -14 -14 -69 -26 -124
-12 -54 -23 -108 -26 -120 -2 -11 -6 -32 -9 -46 -3 -14 -7 -34 -9 -45 -3 -11
-18 -85 -35 -165 -17 -80 -34 -158 -36 -175 -3 -16 -10 -43 -15 -60 -5 -16
-11 -41 -14 -55 -2 -14 -9 -45 -15 -70 -16 -72 -36 -176 -46 -245 -10 -67 -7
-195 6 -234 27 -81 86 -146 156 -169 30 -10 138 -9 192 2 291 61 538 290 741
687 104 203 174 391 254 679 16 56 51 218 61 278 3 17 7 46 10 62 13 80 13 74
31 240 8 73 7 264 -1 320 -34 241 -139 380 -325 430 -41 12 -233 24 -241 16z"/>
</g>
</svg>
